<?xml version="1.0" encoding="UTF-8" standalone="no"?>
<!DOCTYPE svg PUBLIC "-//W3C//DTD SVG 1.1//EN" "http://www.w3.org/Graphics/SVG/1.1/DTD/svg11.dtd">
<svg width="100%" height="100%" viewBox="0 0 458 320" version="1.1" xmlns="http://www.w3.org/2000/svg" xmlns:xlink="http://www.w3.org/1999/xlink" xml:space="preserve" xmlns:serif="http://www.serif.com/" style="fill-rule:evenodd;clip-rule:evenodd;stroke-linejoin:round;stroke-miterlimit:2;">
    <g transform="matrix(1,0,0,1,-289,-338)">
        <g transform="matrix(0.6,0,0,1.427885,196,-297.408654)">
            <path d="M235,479.316L235,653L155,623.455L155,445L416.667,445C456.449,445 494.602,451.641 522.733,463.461C550.863,475.282 566.667,491.314 566.667,508.03C566.667,542.841 499.509,571.061 416.667,571.061L300,571.061L246.667,537.444L416.667,537.444C434.348,537.444 451.305,534.493 463.807,529.239C476.31,523.986 483.333,516.861 483.333,509.431C483.333,502.001 483.333,514.76 483.333,507.33C483.333,499.9 476.31,492.775 463.807,487.521C451.305,482.268 434.348,479.316 416.667,479.316L235,479.316Z" style="fill:white;"/>
        </g>
        <g transform="matrix(0.631579,0,0,1.533654,389.105263,-343.475962)">
            <path d="M419.288,477.238C418.463,476.891 241.189,477.36 241.189,477.36C228.242,462.633 203.596,452.414 172.275,445L416.667,445C456.449,445 494.602,451.641 522.733,463.461C550.863,475.282 566.667,491.314 566.667,508.03C566.667,542.841 499.509,575.625 416.667,575.625L235,576.277L235,653L155,623.455L155,564.547C189.734,558.69 218.262,547.303 235,532.842L235,543.313C235,543.313 418.739,543.719 419.679,543.257C449.896,541.44 479.583,527.47 479.583,510.53C479.583,493.807 449.313,479.427 419.288,477.238Z" style="fill:white;"/>
        </g>
    </g>
</svg>
